
<svg width="44px" height="23px" viewBox="0 0 44 23" version="1.1" xmlns="http://www.w3.org/2000/svg" xmlns:xlink="http://www.w3.org/1999/xlink">
    <g id="Page-1" stroke="none" stroke-width="1" fill="none" fill-rule="evenodd">
        <g id="3" transform="translate(-1086.000000, -100.000000)" fill="#000000" fill-rule="nonzero">
            <g id="Group-9" transform="translate(746.000000, 86.000000)">
                <g id="Group-2" transform="translate(73.000000, 0.000000)">
                    <g id="back" transform="translate(289.000000, 25.500000) scale(-1, 1) translate(-289.000000, -25.500000) translate(267.000000, 14.000000)">
                        <path d="M42.2226406,10.46875 L1.77735937,10.46875 C0.79578125,10.46875 0,10.930474 0,11.5 C0,12.0695759 0.79578125,12.53125 1.77735937,12.53125 L42.2226406,12.53125 C43.2043047,12.53125 44,12.0695759 44,11.5 C44,10.930474 43.2043047,10.46875 42.2226406,10.46875 Z" id="Path"></path>
                        <path d="M2.87540251,11.5 L12.1965514,2.05923315 C12.6616788,1.58813968 12.6616788,0.824369833 12.1965514,0.353276361 C11.731424,-0.117758787 10.9773267,-0.117758787 10.5121993,0.353276361 L0.348845565,10.6469924 C-0.116281855,11.1180859 -0.116281855,11.8818558 0.348845565,12.3529492 L10.5121993,22.6466653 C10.7447342,22.8822412 11.049598,23 11.3544041,23 C11.6592103,23 11.9640741,22.8822412 12.196609,22.6466653 C12.6617364,22.1755718 12.6617364,21.411802 12.196609,20.9407085 L2.87540251,11.5 Z" id="Path"></path>
                    </g>
                </g>
            </g>
        </g>
    </g>
</svg>