
<svg width="44px" height="42px" viewBox="0 0 44 42" version="1.1" xmlns="http://www.w3.org/2000/svg" xmlns:xlink="http://www.w3.org/1999/xlink">
    <g id="Page-1" stroke="none" stroke-width="1" fill="none" fill-rule="evenodd">
        <g id="3" transform="translate(-776.000000, -159.000000)">
            <g id="Group-8" transform="translate(746.000000, 159.000000)">
                <g id="Group-5" transform="translate(30.000000, 0.000000)">
                    <path d="M41.8991051,7.79746835 L41.8991051,33.1189803 C41.8991051,36.4196783 39.225328,39.1048793 35.9392187,39.1048793 L4.57599956,39.1048793 C4.34689568,39.1048793 4.12122223,39.0906055 3.89873418,39.0652571 C5.08982935,40.3846012 6.80847603,41.2151899 8.71751171,41.2151899 L37.4922245,41.2151899 C41.0807019,41.2151899 44,38.2829041 44,34.6787644 L44,12.6015934 C44,10.7034214 43.1896828,8.99253169 41.8991051,7.79746835" id="Fill-10" fill="#212422"></path>
                    <path d="M10.0252015,7.79746835 C10.6405097,7.79746835 11.1392405,7.26977073 11.1392405,6.6187247 L11.1392405,1.17874366 C11.1392405,0.527940915 10.6405097,0 10.0252015,0 C9.41012319,0 8.91139241,0.527940915 8.91139241,1.17874366 L8.91139241,6.6187247 C8.91139241,7.26977073 9.41012319,7.79746835 10.0252015,7.79746835" id="Fill-11" fill="#212422"></path>
                    <polygon id="Fill-12" fill="#212422" points="12.2531646 5.01265823 28.4050633 5.01265823 28.4050633 2.78481013 12.2531646 2.78481013"></polygon>
                    <path d="M2.37014807,33.1757257 L2.37014807,13.934514 L38.2880798,13.934514 L38.2880798,33.1757257 C38.2880798,34.4523098 37.2547941,35.4911327 35.9847137,35.4911327 L4.67375879,35.4911327 C3.40343379,35.4911327 2.37014807,34.4523098 2.37014807,33.1757257 Z M35.9847137,37.8734177 C38.5618124,37.8734177 40.6582278,35.7660212 40.6582278,33.1757257 L40.6582278,7.48250219 C40.6582278,4.89196081 38.5618124,2.78481013 35.9847137,2.78481013 L32.9027139,2.78481013 L32.9027139,5.16709519 L35.9847137,5.16709519 C37.2547941,5.16709519 38.2880798,6.20567214 38.2880798,7.48250219 L38.2880798,11.5522289 L2.37014807,11.5522289 L2.37014807,7.48250219 C2.37014807,6.20567214 3.40343379,5.16709519 4.67375879,5.16709519 L7.75575853,5.16709519 L7.75575853,2.78481013 L4.67375879,2.78481013 C2.09666003,2.78481013 0,4.89196081 0,7.48250219 L0,33.1757257 C0,35.7660212 2.09666003,37.8734177 4.67375879,37.8734177 L35.9847137,37.8734177 L35.9847137,37.8734177 Z" id="Fill-13" fill="#212422"></path>
                    <path d="M30.6329114,7.79746835 C31.2481561,7.79746835 31.7468354,7.26977073 31.7468354,6.6187247 L31.7468354,1.17874366 C31.7468354,0.527940915 31.2481561,0 30.6329114,0 C30.0176667,0 29.5189873,0.527940915 29.5189873,1.17874366 L29.5189873,6.6187247 C29.5189873,7.26977073 30.0176667,7.79746835 30.6329114,7.79746835" id="Fill-14" fill="#212422"></path>
                    <polygon id="Fill-15" stroke="#212422" stroke-width="2" points="17.2658228 22.278481 23.3924051 22.278481 23.3924051 16.7088608 17.2658228 16.7088608"></polygon>
                    <polygon id="Fill-16" stroke="#212422" stroke-width="2" points="17.2658228 32.3037975 23.3924051 32.3037975 23.3924051 26.7341772 17.2658228 26.7341772"></polygon>
                    <polygon id="Fill-17" stroke="#212422" stroke-width="2" points="27.8481013 22.278481 33.9746835 22.278481 33.9746835 16.7088608 27.8481013 16.7088608"></polygon>
                    <polygon id="Fill-18" stroke="#212422" stroke-width="2" points="27.8481013 32.3037975 33.9746835 32.3037975 33.9746835 26.7341772 27.8481013 26.7341772"></polygon>
                    <polygon id="Fill-19" stroke="#212422" stroke-width="2" points="6.6835443 22.278481 12.8101266 22.278481 12.8101266 16.7088608 6.6835443 16.7088608"></polygon>
                    <polygon id="Fill-20" stroke="#212422" stroke-width="2" points="6.6835443 32.3037975 12.8101266 32.3037975 12.8101266 26.7341772 6.6835443 26.7341772"></polygon>
                </g>
            </g>
        </g>
    </g>
</svg>