
<svg width="44px" height="39px" viewBox="0 0 44 39" version="1.1" xmlns="http://www.w3.org/2000/svg" xmlns:xlink="http://www.w3.org/1999/xlink">
    <g id="Page-1" stroke="none" stroke-width="1" fill="none" fill-rule="evenodd">
        <g id="3" transform="translate(-776.000000, -92.000000)" fill="#212422" fill-rule="nonzero">
            <g id="Group-9" transform="translate(746.000000, 86.000000)">
                <g id="diamond" transform="translate(30.000000, 6.000000)">
                    <path d="M43.7817254,10.0774389 L36.1886213,0.333593891 C36.0233436,0.121468468 35.7857027,0 35.5361317,0 L8.46395536,0 C8.21438443,0 7.97674344,0.121468468 7.81146583,0.333593891 L0.218274576,10.0774389 C-0.00848142745,10.3684695 -0.0637771503,10.7831411 0.0769439334,11.137276 C0.129975579,11.2707925 0.207302512,11.3861382 0.30134878,11.4782765 C0.303177458,11.4805478 0.304570736,11.4831155 0.306399413,11.4854856 L21.3485554,38.3877887 C21.513833,38.5991241 21.7509515,38.72 22,38.72 C22.2490485,38.72 22.486167,38.5990253 22.6514446,38.3877887 L43.6936006,11.4854856 C43.6954293,11.4832142 43.6969096,11.4806466 43.6986512,11.4782765 C43.7926104,11.3861382 43.8699373,11.2706938 43.9230561,11.137276 C44.0637772,10.7831411 44.0084814,10.3684695 43.7817254,10.0774389 Z M33.9920313,1.97499829 L30.1221144,9.05019093 L23.9202855,1.97499829 L33.9920313,1.97499829 Z M28.2744536,9.74384501 L15.7255464,9.74384501 L22,2.58579705 L28.2744536,9.74384501 Z M20.0797145,1.97509705 L13.8778856,9.05028968 L10.0079687,1.97509705 L20.0797145,1.97509705 Z M8.32880739,2.65216031 L12.2077806,9.74384501 L2.80245705,9.74384501 L8.32880739,2.65216031 Z M2.81708647,11.7189421 L13.1080124,11.7189421 L20.2168653,33.9645588 L2.81708647,11.7189421 Z M23.8154413,33.9232793 L28.7823034,18.6782953 C28.9489743,18.1666464 28.7183868,17.5987072 28.267313,17.4096904 C27.815978,17.2204761 27.3152687,17.4820777 27.1486849,17.9937266 L22.0079243,33.7724807 L14.9604626,11.7189421 L41.1829135,11.7189421 L23.8154413,33.9232793 Z M31.7922194,9.74384501 L35.6711926,2.65216031 L41.1975429,9.74384501 L31.7922194,9.74384501 Z" id="Shape"></path>
                    <circle id="Oval" cx="29.04" cy="14.96" r="1"></circle>
                </g>
            </g>
        </g>
    </g>
</svg>