
<svg width="44px" height="44px" viewBox="0 0 44 44" version="1.1" xmlns="http://www.w3.org/2000/svg" xmlns:xlink="http://www.w3.org/1999/xlink">
    <g id="Page-1" stroke="none" stroke-width="1" fill="none" fill-rule="evenodd">
        <g id="3" transform="translate(-776.000000, -20.000000)" fill="#212422" fill-rule="nonzero">
            <g id="Group-10" transform="translate(746.000000, 20.000000)">
                <g id="rocket-(1)" transform="translate(30.000000, 0.000000)">
                    <path d="M28.6077953,13.2044401 C28.5140516,12.9244609 28.2790722,12.7105007 27.9852593,12.6373468 L24.2834474,11.7161747 L22.2365924,8.58525547 C22.0740915,8.33665248 21.7917086,8.18604651 21.4883265,8.18604651 C21.1849443,8.18604651 20.90265,8.33665248 20.7401492,8.58525547 L18.6931169,11.7161747 L14.9914822,12.6373468 C14.6975808,12.7105007 14.46269,12.9244609 14.3689463,13.2044401 C14.2752026,13.4844193 14.3356309,13.7913907 14.5290548,14.0181593 L16.9657701,16.8744289 L16.7248542,20.5745046 C16.7057156,20.8683237 16.8427869,21.1511397 17.0883103,21.3241818 C17.3338336,21.497224 17.6534305,21.5363368 17.9355475,21.4279384 L21.4884151,20.0622552 L25.0412826,21.4279384 C25.1467221,21.4685126 25.2573892,21.4883721 25.3676134,21.4883721 C25.5519996,21.4883721 25.7348795,21.4325803 25.8885199,21.3241818 C26.1340432,21.1511397 26.2711146,20.8683237 26.251976,20.5745046 L26.01106,16.874343 L28.4477753,14.0181593 C28.6411106,13.7913907 28.7015389,13.4844193 28.6077953,13.2044401 Z M24.4219364,16.0404226 C24.2781311,16.2089087 24.206007,16.4243303 24.2202723,16.6427605 L24.3952664,19.3302861 L21.8147458,18.338367 C21.7099266,18.2980507 21.5990822,18.2779355 21.4883265,18.2779355 C21.3775707,18.2779355 21.2667263,18.2980507 21.1619071,18.338367 L18.5814751,19.3302861 L18.7564692,16.6428465 C18.7707346,16.4244162 18.6986104,16.2090807 18.5548051,16.0405086 L16.7849281,13.9659802 L19.4734577,13.2969355 C19.6918681,13.2425214 19.8807731,13.1094518 20.0015412,12.9247188 L21.4883265,10.6506719 L22.9749346,12.9247188 C23.0957026,13.1094518 23.2846077,13.2425214 23.503018,13.2969355 L26.1917248,13.9659802 L24.4219364,16.0404226 Z" id="Shape"></path>
                    <path d="M21.4883721,23.5348837 C20.9232279,23.5348837 20.4651163,23.9276559 20.4651163,24.411999 L20.4651163,43.1228847 C20.4651163,43.6072278 20.9232279,44 21.4883721,44 C22.0535163,44 22.5116279,43.6073155 22.5116279,43.1228847 L22.5116279,24.411999 C22.5116279,23.9275682 22.0535163,23.5348837 21.4883721,23.5348837 Z" id="Path"></path>
                    <path d="M35.5925629,20.7608419 C35.2666777,20.4012593 34.700256,20.3644366 34.3275724,20.6787257 C32.7774883,21.984633 31.5128564,23.7707041 30.5688203,25.9871506 C29.2963886,28.9747117 28.6511628,32.6786721 28.6511628,36.9960838 C28.6511628,37.4733952 29.052535,37.8604651 29.5476834,37.8604651 C30.0428317,37.8604651 30.4442039,37.4733952 30.4442039,36.9960838 C30.4442039,27.6427866 33.6164523,23.5736251 35.5074831,21.9804839 C35.8801667,21.6663678 35.9182688,21.1203381 35.5925629,20.7608419 Z" id="Path"></path>
                    <path d="M43.8815675,16.3899847 C43.7301907,16.1311307 43.4551129,15.9667942 43.1526245,15.9544013 L41.3236354,15.8791714 L40.0432989,14.5879561 C39.8315305,14.3743972 39.5236484,14.2823234 39.2275264,14.3448114 C38.9313159,14.4069503 38.6879812,14.6143128 38.5825834,14.8944615 L37.9448909,16.5880088 L36.3052112,17.3909274 C36.0340239,17.5236708 35.8504618,17.7842702 35.8188071,18.0815247 C35.7871524,18.3786918 35.911826,18.6712334 36.1491481,18.8568647 L37.5839562,19.9786816 L37.8508993,21.7661355 C37.8951098,22.061819 38.0893708,22.314651 38.3660403,22.4362234 C38.4809876,22.4867549 38.6035392,22.5116279 38.7255602,22.5116279 C38.897097,22.5116279 39.067838,22.4624055 39.2151474,22.3657062 L40.7395261,21.3654616 L42.5442878,21.667167 C42.5964562,21.6759817 42.6496857,21.6805199 42.7005278,21.6794726 C43.1857824,21.6758071 43.5779297,21.2864789 43.5779297,20.806735 C43.5779297,20.7049738 43.5603339,20.6074018 43.5278834,20.5165498 L43.0508519,18.8318172 L43.8993402,17.2309546 C44.0395759,16.966166 44.0329443,16.6488386 43.8815675,16.3899847 Z M41.2533407,18.9684879 L41.4651091,19.7163367 L40.6893913,19.5867352 C40.467543,19.5494693 40.2395935,19.5974698 40.0522294,19.7203513 L39.3970295,20.1502618 L39.2823474,19.3820782 C39.2495432,19.1622356 39.1330043,18.9631642 38.9566043,18.8251843 L38.3398676,18.3429968 L39.0445833,17.9979164 C39.2461832,17.8992098 39.4020695,17.7283278 39.4804105,17.5200926 L39.7545158,16.7921421 L40.3048483,17.347116 C40.4622377,17.5057797 40.6750671,17.5994244 40.8999218,17.6085882 L41.6860732,17.6409667 L41.3214249,18.3289458 C41.2170881,18.5259226 41.1926839,18.7545799 41.2533407,18.9684879 Z" id="Shape"></path>
                    <path d="M9.67243102,20.6787257 C9.29957423,20.3644366 8.73316182,20.4012593 8.40746124,20.7608419 C8.08167101,21.1203381 8.11986216,21.6664542 8.4926293,21.9804839 C10.3835395,23.5736251 13.5558255,27.6427866 13.5558255,36.9960838 C13.5558255,37.4733952 13.9571912,37.8604651 14.4523313,37.8604651 C14.9474715,37.8604651 15.3488372,37.4733952 15.3488372,36.9960838 C15.3488372,32.6786721 14.7036219,28.9747117 13.4312112,25.9871506 C12.4871008,23.7707041 11.2224897,21.9847194 9.67243102,20.6787257 Z" id="Path"></path>
                    <path d="M8.18119045,18.0815431 C8.14953616,17.7842899 7.96597662,17.5236915 7.69479305,17.3909487 L6.05513601,16.5880335 L5.41745231,14.8944932 C5.31196747,14.6143456 5.06863614,14.406984 4.77242976,14.3448454 C4.47604655,14.2822704 4.16852243,14.3744311 3.95666855,14.5879891 L2.67634964,15.879199 L0.847385778,15.9544286 C0.544901593,15.9669087 0.26982755,16.1311572 0.118452828,16.3900101 C-0.0329218946,16.648863 -0.0396418005,16.9661891 0.100768865,17.2309766 L0.949245405,18.8318325 L0.456570198,20.5718021 C0.375047129,20.8596298 0.448435575,21.1685776 0.65100537,21.3906884 C0.853663585,21.6127992 1.15747407,21.71744 1.45580252,21.6671705 L3.26053936,21.3654664 L4.78489696,22.3657068 C4.93229279,22.4623184 5.10285461,22.5116279 5.27447747,22.5116279 C5.39649681,22.5116279 5.51904668,22.486755 5.63399244,22.4362237 C5.91056962,22.3146519 6.10491637,22.0618208 6.14912628,21.7661386 L6.4160657,19.9786922 L7.85085402,18.8568799 C8.08826123,18.6712494 8.21284475,18.378709 8.18119045,18.0815431 Z M5.04343649,18.8251997 C4.86703896,18.9631789 4.75050165,19.1622495 4.7176979,19.3820912 L4.6030174,20.1502716 L3.94782657,19.7203629 C3.80184546,19.624624 3.63137206,19.5744418 3.45833448,19.5744418 C3.40917306,19.5744418 3.35974639,19.5784564 3.31067339,19.5867473 L2.53496636,19.7163483 L2.74673181,18.9685026 C2.80729939,18.7545955 2.78298394,18.5259392 2.67864856,18.3290504 L2.31400524,17.6410743 L3.10014581,17.6086958 C3.3249974,17.5995321 3.53782389,17.5058878 3.69521116,17.3472247 L4.24553609,16.7922532 L4.51963751,17.5202006 C4.59797747,17.7284349 4.7538616,17.8993162 4.95545878,17.9980224 L5.6601647,18.3431015 L5.04343649,18.8251997 Z" id="Shape"></path>
                    <path d="M11.7007866,5.75330164 C13.020356,6.50769622 14.3647094,8.6822685 14.6365472,10.5018629 C14.7021722,10.9411059 15.0741929,11.255814 15.4982249,11.255814 C15.5417713,11.255814 15.5859286,11.252532 15.6303476,11.2457021 C16.1068273,11.1721697 16.4344289,10.7198878 16.3620843,10.2355851 C16.0091752,7.87341205 14.3375693,5.2254472 12.5564429,4.20708105 C12.1363379,3.96688111 11.6042689,4.11846962 11.3679489,4.54529463 C11.1318035,4.97238574 11.2807689,5.5131017 11.7007866,5.75330164 Z" id="Path"></path>
                    <path d="M7.67437597,5.11627907 C9.0849106,5.11627907 10.2325581,3.96869767 10.2325581,2.55813953 C10.2325581,1.1475814 9.0849106,0 7.67437597,0 C6.26384134,0 5.11627907,1.1475814 5.11627907,2.55813953 C5.11627907,3.96869767 6.26384134,5.11627907 7.67437597,5.11627907 Z M7.67437597,1.70542636 C8.14463945,1.70542636 8.52716021,2.08795349 8.52716021,2.55813953 C8.52716021,3.02832558 8.14463945,3.41085271 7.67437597,3.41085271 C7.20419776,3.41085271 6.821677,3.02832558 6.821677,2.55813953 C6.821677,2.08795349 7.20419776,1.70542636 7.67437597,1.70542636 Z" id="Shape"></path>
                    <path d="M28.3697291,11.2457021 C28.4141477,11.252532 28.4583044,11.255814 28.5018503,11.255814 C28.9259648,11.255814 29.2979813,10.9411046 29.3635183,10.5018597 C29.635353,8.6822575 30.9797784,6.50767593 32.2992457,5.75327813 C32.7192586,5.51307716 32.8682223,4.97227019 32.6319923,4.54535466 C32.3957622,4.11843913 31.8636993,3.96684996 31.4435118,4.20713963 C29.6624056,5.22542143 27.9908186,7.8734863 27.6379135,10.2356694 C27.5655697,10.7199742 27.8932548,11.1721694 28.3697291,11.2457021 Z" id="Path"></path>
                    <path d="M36.3255814,5.11627907 C37.7361395,5.11627907 38.8837209,3.96869767 38.8837209,2.55813953 C38.8837209,1.1475814 37.7361395,0 36.3255814,0 C34.9150233,0 33.7674419,1.1475814 33.7674419,2.55813953 C33.7674419,3.96869767 34.9150233,5.11627907 36.3255814,5.11627907 Z M36.3255814,1.70542636 C36.7957674,1.70542636 37.1782946,2.08795349 37.1782946,2.55813953 C37.1782946,3.02832558 36.7957674,3.41085271 36.3255814,3.41085271 C35.8553953,3.41085271 35.4728682,3.02832558 35.4728682,2.55813953 C35.4728682,2.08795349 35.8553953,1.70542636 36.3255814,1.70542636 Z" id="Shape"></path>
                    <path d="M7.1627907,29.6744186 C6.5991814,29.6744186 6.13953488,30.1340651 6.13953488,30.6976744 C6.13953488,31.2612837 6.5991814,31.7209302 7.1627907,31.7209302 C7.7264,31.7209302 8.18604651,31.2612837 8.18604651,30.6976744 C8.18604651,30.1340651 7.7264,29.6744186 7.1627907,29.6744186 Z" id="Path"></path>
                    <path d="M10.2325581,12.2790698 C10.2325581,12.8427814 10.6921817,13.3023256 11.2557628,13.3023256 C11.8193439,13.3023256 12.2790698,12.8427814 12.2790698,12.2790698 C12.2790698,11.7154605 11.8193439,11.255814 11.2557628,11.255814 C10.6921817,11.255814 10.2325581,11.7154605 10.2325581,12.2790698 Z" id="Path"></path>
                    <path d="M21.4883721,5.11627907 C22.0519814,5.11627907 22.5116279,4.65673488 22.5116279,4.09302326 C22.5116279,3.52941395 22.0519814,3.06976744 21.4883721,3.06976744 C20.9247628,3.06976744 20.4651163,3.52941395 20.4651163,4.09302326 C20.4651163,4.65673488 20.9247628,5.11627907 21.4883721,5.11627907 Z" id="Path"></path>
                    <path d="M33.7674419,12.2790698 C33.7674419,12.8426791 34.2270654,13.3023256 34.7906465,13.3023256 C35.3542276,13.3023256 35.8139535,12.8426791 35.8139535,12.2790698 C35.8139535,11.7154605 35.3542276,11.255814 34.7906465,11.255814 C34.2270654,11.255814 33.7674419,11.7154605 33.7674419,12.2790698 Z" id="Path"></path>
                    <path d="M35.8139535,29.6744186 C35.2502419,29.6744186 34.7906977,30.1340651 34.7906977,30.6976744 C34.7906977,31.2612837 35.2502419,31.7209302 35.8139535,31.7209302 C36.3775628,31.7209302 36.8372093,31.2612837 36.8372093,30.6976744 C36.8372093,30.1340651 36.3775628,29.6744186 35.8139535,29.6744186 Z" id="Path"></path>
                    <path d="M14.3255814,37.8604651 C13.7619721,37.8604651 13.3023256,38.320191 13.3023256,38.8836698 C13.3023256,39.4473532 13.7619721,39.9069767 14.3255814,39.9069767 C14.8891907,39.9069767 15.3488372,39.4473532 15.3488372,38.8836698 C15.3488372,38.320191 14.8891907,37.8604651 14.3255814,37.8604651 Z" id="Path"></path>
                    <path d="M29.6744186,37.8604651 C29.110707,37.8604651 28.6511628,38.320191 28.6511628,38.8836698 C28.6511628,39.4473532 29.110707,39.9069767 29.6744186,39.9069767 C30.2380279,39.9069767 30.6976744,39.4473532 30.6976744,38.8836698 C30.6976744,38.320191 30.2380279,37.8604651 29.6744186,37.8604651 Z" id="Path"></path>
                    <path d="M17.3953488,24.5581395 C16.8317395,24.5581395 16.372093,25.017786 16.372093,25.5813953 C16.372093,26.1450047 16.8317395,26.6046512 17.3953488,26.6046512 C17.9589581,26.6046512 18.4186047,26.1450047 18.4186047,25.5813953 C18.4186047,25.017786 17.9589581,24.5581395 17.3953488,24.5581395 Z" id="Path"></path>
                    <path d="M26.6046512,24.5581395 C26.0410419,24.5581395 25.5813953,25.017786 25.5813953,25.5813953 C25.5813953,26.1450047 26.0410419,26.6046512 26.6046512,26.6046512 C27.1682605,26.6046512 27.627907,26.1450047 27.627907,25.5813953 C27.627907,25.017786 27.1682605,24.5581395 26.6046512,24.5581395 Z" id="Path"></path>
                </g>
            </g>
        </g>
    </g>
</svg>