
<svg width="46px" height="42px" viewBox="0 0 46 42" version="1.1" xmlns="http://www.w3.org/2000/svg" xmlns:xlink="http://www.w3.org/1999/xlink">
    <g id="Page-1" stroke="none" stroke-width="1" fill="none" fill-rule="evenodd">
        <g id="2" transform="translate(-775.000000, -229.000000)" stroke="#FFFFFF" stroke-width="2">
            <g id="Group-6" transform="translate(776.000000, 224.000000)">
                <g id="Group-38" transform="translate(0.000000, 5.000000)">
                    <g id="Group-7" transform="translate(40.255319, 10.002000)" stroke-linejoin="round">
                        <path d="M0.936170213,0.998 L0.936170213,2.998" id="Stroke-1"></path>
                        <path d="M0.936170213,4.998 L0.936170213,6.998" id="Stroke-3"></path>
                        <path d="M1.87234043,3.998 L3.74468085,3.998" id="Stroke-5"></path>
                    </g>
                    <path d="M38.3829787,14 L40.2553191,14" id="Stroke-8" stroke-linejoin="round"></path>
                    <path d="M26.212766,0 L26.212766,2" id="Stroke-9" stroke-linejoin="round"></path>
                    <path d="M26.212766,4 L26.212766,6" id="Stroke-11" stroke-linejoin="round"></path>
                    <g id="Group-16" transform="translate(23.404255, 2.002000)" stroke-linejoin="round">
                        <path d="M3.74468085,0.998 L5.61702128,0.998" id="Stroke-12"></path>
                        <path d="M0,0.998 L1.87234043,0.998" id="Stroke-14"></path>
                    </g>
                    <path d="M7.4893617,4 L7.4893617,7" id="Stroke-17" stroke-linejoin="round"></path>
                    <path d="M7.4893617,11 L7.4893617,14" id="Stroke-18" stroke-linejoin="round"></path>
                    <path d="M9.36170213,9 L12.1702128,9" id="Stroke-19" stroke-linejoin="round"></path>
                    <path d="M2.80851064,9 L5.61702128,9" id="Stroke-20" stroke-linejoin="round"></path>
                    <g id="Group-37" transform="translate(0.000000, 11.002000)">
                        <path d="M21.4272511,27.998 C21.0218894,27.998 20.7934638,27.486 21.0705702,27.173 C22.4092936,25.658 23.4044426,22.283 23.4044426,18.998 C23.4044426,15.863 22.4926128,13.149 21.2503149,11.837 C20.9572936,11.527 21.1782298,10.998 21.5929532,10.998 L25.2374638,10.998 C27.3269957,10.998 29.0214638,14.58 29.0214638,18.998 C29.0214638,23.416 27.3269957,27.998 25.2374638,27.998 L21.4272511,27.998 Z" id="Stroke-21" stroke-linejoin="round"></path>
                        <path d="M27.1809532,27.0117 C31.6081021,27.6517 38.9832511,29.0487 39.0094638,29.0487 C38.4926979,27.4957 38.3475915,26.0847 38.3475915,24.1497" id="Stroke-23" stroke-linejoin="round"></path>
                        <path d="M5.61702128,14.998 L3.784,14.998 C3.52280851,15.998 3.22323404,17.635 3.22323404,19.403 C3.22323404,22.658 4.34008511,24.558 4.79974468,24.558 C6.38842553,24.558 7.56706383,21.571 7.56706383,17.639 C7.56706383,11.367 5.81548936,8.006 4.13131915,8.006 C2.10544681,8.006 -1.42108547e-13,11.944 -1.42108547e-13,19.002 C-1.42108547e-13,25.189 1.59055319,27.932 2.83753191,30 C2.83753191,30 19.0594894,26.993 21.5431489,26.993" id="Stroke-25" stroke-linejoin="round"></path>
                        <path d="M21.6302128,11.9233 C17.2236596,11.9233 4.72953191,8.1563 4.72953191,8.1563" id="Stroke-27" stroke-linejoin="round"></path>
                        <path d="M28.7785277,23.0957 L41.2071234,23.9977 C41.9466979,22.8517 43.0635489,20.8357 43.0635489,16.4077 C43.0635489,12.8677 41.9897617,9.5767 40.3018468,8.8167 C40.3018468,8.8167 29.7352936,11.6997 27.0952936,11.6997" id="Stroke-29" stroke-linejoin="round"></path>
                        <path d="M5.18600851,24.4804 C5.18600851,24.4804 17.2242213,22.9704 23.2072851,22.9704" id="Stroke-31" stroke-linejoin="round"></path>
                        <path d="M24.3404255,10.998 C24.3404255,10.998 24.7504681,4.515 27.6301277,1.771 C29.5998298,-0.105 32.2398298,0.248 33.7021277,1.998 C35.1644255,3.748 34.892,6.234 32.923234,8.111 C30.0435745,10.854 24.3404255,10.998 24.3404255,10.998 Z" id="Stroke-33"></path>
                        <path d="M24.3404255,10.998 C24.3404255,10.998 24.2065532,5.592 21.9382128,3.431 C20.3869787,1.952 18.3058723,2.23 17.154383,3.609 C16.0028936,4.988 16.2163404,6.946 17.7675745,8.424 C20.0368511,10.586 22.7077447,10.943 24.3404255,10.998 Z" id="Stroke-35"></path>
                    </g>
                </g>
            </g>
        </g>
    </g>
</svg>